# xmcd
#
# Track frame offsets: 
#        150
#        9833
#        23424
#        48552
#        66691
#        100655
#        117152
#        135569
#        149623
#        175737
#        198482
#        217058
#        241984
#        258164
#        274380
#        290753
#        309281
#
# Disc length: 4318 seconds
#
# Revision: 2
# Processed by: cddbd v1.5.1PL2 Copyright (c) Steve Scherf et al.
# Submitted via: ExactAudioCopy v0.95b2
#
DISCID=fd10dc11
DTITLE=Various Artist - Absolute Funk
DYEAR=1996
DGENRE=
TTITLE0=James Brown - Papa's Got A Brand New Bag
TTITLE1=Sly and the Family Stone - Dance To The Music
TTITLE2=Paliament - Flashlight
TTITLE3=Average White Band - Pick Up The Pieces
TTITLE4=Grandmaster Flash - White Lines
TTITLE5=Commodores - Brick House
TTITLE6=Cameo - Word Up
TTITLE7=Kool and the Gang - Jungle Boogie
TTITLE8=Chaka Kahn - I Feel For You
TTITLE9=Mary Jane Girls - In My House
TTITLE10=Dazz Band - Let It Whip
TTITLE11=Chic - Le Freak
TTITLE12=Sister Sledge - We Are Family
TTITLE13=The Trammps - Disco Inferno
TTITLE14=Earth Wind and Fire - September
TTITLE15=Patrice Rushen - Forget me Nots
TTITLE16=Rose Royce - Car Wash
EXTD=
EXTT0=
EXTT1=
EXTT2=
EXTT3=
EXTT4=
EXTT5=
EXTT6=
EXTT7=
EXTT8=
EXTT9=
EXTT10=
EXTT11=
EXTT12=
EXTT13=
EXTT14=
EXTT15=
EXTT16=
PLAYORDER=
